<svg xmlns="http://www.w3.org/2000/svg" width="256" height="256"><path fill-opacity=".016" d="M0 128.004v128.004l128.25-.254 128.25-.254.254-127.75L257.008 0H0v128.004m.485.496c0 70.4.119 99.053.265 63.672.146-35.38.146-92.98 0-128C.604 29.153.485 58.1.485 128.5" fill="#1976D2" fill-rule="evenodd"/><path fill-opacity=".075" d="M104 2.384c-23.231 4.985-42.069 14.03-58.445 28.062-3.33 2.854-3.746 3.619-2.672 4.913 1.109 1.336 2.19.792 8.444-4.249C69.852 16.181 91.202 7.662 117 4.908c20.216-2.159 45.029 2.183 63.999 11.199C204.05 27.063 222.101 43.58 235.527 66c2.14 3.575 4.033 6.698 4.206 6.94.173.243.96-.207 1.748-1 1.245-1.251.816-2.458-3.274-9.202-12.847-21.185-29.813-37.211-51.313-48.468-4.138-2.167-8.395-4.206-9.459-4.53-1.064-.325-5.085-1.722-8.935-3.106-3.85-1.384-8.125-2.723-9.5-2.976-1.375-.253-6.262-1.18-10.86-2.059-12.322-2.356-31.053-2.023-44.14.785m-.009 15.985c-13.547 3.3-16.404 4.322-26.406 9.441-30.833 15.781-51.904 43.147-59.618 77.429-2.494 11.081-2.696 33.789-.394 44.261.847 3.85 1.736 7.949 1.977 9.11.785 3.781 7.522 19.756 10.708 25.39 4.25 7.515 13.532 19.536 19.394 25.114 14.999 14.273 29.913 22.589 51.348 28.633 8.659 2.442 11.05 2.679 27 2.677 13.719-.001 18.904-.388 24-1.791 3.575-.984 7.412-1.969 8.526-2.19 2.531-.501 13.651-4.996 18.974-7.669 14.441-7.253 32.791-23.561 41.943-37.274 6.301-9.441 13.865-25.092 14.981-31 .208-1.1 1.173-4.925 2.144-8.5 2.728-10.041 2.505-37.531-.398-49.112-10.485-41.836-41.056-72.818-82.908-84.024-6.015-1.61-11.588-2.16-24.762-2.444-15.143-.327-18.039-.114-26.509 1.949m15.509 1.736c-30.7 2.754-57.956 17.25-76.082 40.463-15.596 19.973-23.674 43.25-23.576 67.932.114 28.591 10.403 54.493 29.549 74.387 32.988 34.279 81.985 43.633 124.837 23.834 26.662-12.319 49.28-38.199 57.791-66.127 5.279-17.325 6.272-34.372 3.008-51.651-4.12-21.815-13.293-39.802-28.474-55.836-9.392-9.918-27.953-22.638-37.053-25.391-1.1-.333-4.7-1.554-8-2.713-11.471-4.032-28.947-6.07-42-4.898m-97.896 37.3C13.412 70.211 5.508 88.118 3.647 98.091c-.247 1.325-1.169 6.171-2.048 10.769-2.046 10.7-2.042 27.206.009 39.148 7.591 44.19 34.08 78.857 74.286 97.222 5.082 2.321 6.567 2.649 7.235 1.595 1.357-2.139 1.22-2.256-6.811-5.841C33.134 221.711 3.964 176.106 4.05 128c.015-8.454 2.046-23.709 4.271-32.086 3.634-13.678 12.535-32.247 18.979-39.59 1.05-1.197 1.611-2.659 1.246-3.25-1.397-2.26-3.609-.88-6.942 4.331m226.98 36.459c-.293.474.108 3.962.892 7.75 3.897 18.822 4.093 29.687.881 48.711-4.86 28.79-22.475 58.309-44.82 75.109-18.801 14.136-34.945 21.352-56.537 25.271-10.505 1.907-31.702 2.194-38.719.525-3.792-.902-4.281-.805-4.841.959-.342 1.079-.32 2.265.051 2.636.37.371 9.974.675 21.341.675 21.418 0 25.096-.461 40.189-5.041 36.423-11.051 68.686-41.863 81.409-77.746 1.991-5.617 3.802-11.113 4.023-12.213.221-1.1 1.11-5.292 1.975-9.315 2.351-10.938 2.133-35.24-.428-47.685-1.1-5.346-2-9.896-2-10.11 0-.772-2.894-.371-3.416.474" fill="#1976D2" fill-rule="evenodd"/><path fill-opacity=".293" d="M113 1.491C94.969 3.638 79.857 8.68 64.197 17.773c-7.937 4.609-22.126 15.084-22.173 16.37-.013.354.729.932 1.648 1.285 1.108.425 2.881-.494 5.25-2.721 8.106-7.62 24.946-17.349 37.606-21.728 14.62-5.056 23.051-6.324 41.972-6.312 16.057.01 19.087.29 28.073 2.592 18.673 4.783 34.256 12.194 48.106 22.879 11.519 8.887 26.521 26.493 32.409 38.035 1.828 3.583 4.912 5.256 4.912 2.665 0-3.752-13.025-22.07-22.869-32.162C197.789 16.794 172.064 4.591 139.83 1.06 128.483-.184 126.845-.157 113 1.491m-2 15.971c-16.869 2.749-31.993 8.71-46.08 18.161-46.057 30.901-62.131 93.384-36.897 143.43 10.263 20.355 30.05 40.003 50.69 50.334 12.246 6.129 35.279 11.617 48.73 11.609 8.193-.005 22.723-2.204 32.543-4.925 28.287-7.839 55.034-30.28 68.846-57.763 15.741-31.324 15.493-69.793-.652-101.187-10.265-19.959-27.986-37.872-47.656-48.172-20.646-10.811-46.98-15.162-69.524-11.487m4.5 2.708c-40.993 4.103-78.282 34.958-90.89 75.205C8.258 147.576 31.642 202.19 80.5 225.904c17.345 8.419 28.988 11.106 48 11.076 40.051-.062 74.357-20.137 94.861-55.512 19.685-33.961 17.848-81.113-4.42-113.468-18.902-27.464-45.832-43.842-78.85-47.953-9.415-1.172-11.765-1.161-24.591.123M21.996 57.25c-4.66 7.047-12.268 22.239-14.458 28.872-4.312 13.056-5.614 20.6-6.192 35.878-.887 23.423 1.819 39.015 10.117 58.292 11.179 25.976 35.205 50.716 60.98 62.794 9.054 4.243 10.557 4.612 10.557 2.59 0-.729-2.812-2.614-6.25-4.189-21.295-9.758-39.288-25.064-52.675-44.809C17.221 186.57 10.117 169.456 6.359 154c-2.539-10.44-2.531-42.411.013-52 4.53-17.079 10.845-31.803 18.301-42.668C27.8 54.776 28.368 52 26.175 52c-.389 0-2.269 2.362-4.179 5.25m226.377 38.5c3.842 13.24 5.223 29.563 3.716 43.929-2.786 26.554-10.995 46.725-27.216 66.873-20.941 26.01-50.698 42.043-84.529 45.542-9.515.985-14.498 1.002-22.94.08-8.575-.936-10.943-.921-11.559.074-1.146 1.851 2.979 2.74 15.979 3.444 36.703 1.986 70.719-11.112 96.725-37.246 31.498-31.651 43.528-73.233 34.34-118.696-.933-4.613-1.544-5.75-3.093-5.75-1.366 0-1.782.512-1.423 1.75" fill="#1976D2" fill-rule="evenodd"/><path fill-opacity=".122" d="M106.677 2.561C88.332 5.648 69.784 13.445 53.949 24.724c-9.447 6.729-11.438 8.676-10.472 10.239.39.631 2.516-.498 5.336-2.835C76.945 8.807 116.152-1.286 151 5.821c5.775 1.178 12.525 2.791 15 3.586 29.974 9.618 55.132 29.986 70.518 57.093 3.591 6.327 3.33 6.052 4.569 4.813.737-.737-.241-3.217-3.267-8.276-19.687-32.918-53.6-55.523-91.512-60.998-9.564-1.382-29.915-1.114-39.631.522m2.823 15.45C87.896 21.987 71.086 29.812 56.05 42.89c-21.995 19.13-33.846 40.615-38.634 70.038-4.697 28.868 4.192 61.204 23.487 85.45C62.312 225.278 93.353 240 128.662 240c39.084 0 73.412-18.988 94.713-52.388 22.378-35.089 22.084-85.986-.692-119.612-19.047-28.121-43.943-44.345-76.828-50.069-13.546-2.357-23.23-2.336-36.355.08m3.5 1.64c-25.439 5.035-43.642 14.165-60.237 30.21-15.402 14.894-24.534 30.411-30.535 51.891-2.479 8.873-2.723 11.273-2.711 26.748.011 15.53.253 17.859 2.796 26.927 3.481 12.414 5.796 17.993 11.598 27.948 12.061 20.696 33.936 39.362 55.28 47.171 13.675 5.003 23.024 6.615 38.809 6.693 12.947.063 16.982-.296 24.5-2.184 23.6-5.926 41.883-17.082 58.546-35.723 9.099-10.178 19.29-28.446 21.866-39.195.48-2 1.616-6.337 2.524-9.637 2.55-9.263 2.31-35.429-.422-46-5.883-22.757-14.512-38.13-30.052-53.537-15.078-14.95-30.559-23.662-51.74-29.116-7.599-1.957-34.114-3.404-40.222-2.196M21.693 58.616C7.633 80.416 1.036 102.576 1.036 128c0 34.982 12.781 65.985 37.258 90.374 11.036 10.995 19.153 16.817 33.486 24.016 9.766 4.904 11.221 5.34 11.219 3.36-.001-.687-3.488-2.811-7.75-4.72-24.18-10.828-46.663-32.742-59.021-57.53-3.774-7.57-8.629-22.469-10.917-33.5-3.569-17.214-1.962-40.434 4.182-60.416 2.11-6.864 10.496-24.022 14.903-30.494 2.39-3.509 3.342-5.752 2.71-6.384-.631-.631-2.533 1.445-5.413 5.91m227.32 36.551c.007.733.901 5.608 1.987 10.833 2.442 11.752 2.664 31.28.486 42.76-5.068 26.719-15.892 47.691-34.363 66.582-17.562 17.962-36.622 28.606-63.123 35.25-7.851 1.969-35.227 3.03-42.699 1.656-3.946-.726-5.314-.657-5.676.287-.621 1.617 11.469 3.465 22.666 3.465 10.581 0 30.056-3.189 40.232-6.588 31.729-10.598 58.67-33.994 73.829-64.114 5.657-11.24 9.075-21.789 11.76-36.298 2.91-15.723.252-53.408-3.862-54.757-.687-.225-1.244.19-1.237.924" fill="#1976D2" fill-rule="evenodd"/></svg>