<svg xmlns="http://www.w3.org/2000/svg" width="256" height="256"><path fill-opacity=".016" d="M0 128.004v128.004l128.25-.254 128.25-.254.254-127.75L257.008 0H0v128.004m.485.496c0 70.4.119 99.053.265 63.672.146-35.38.146-92.98 0-128C.604 29.153.485 58.1.485 128.5" fill="#1976D2" fill-rule="evenodd"/><path fill-opacity=".075" d="M110.66 43.981c-13.88 2.521-26.84 8.159-37.615 16.365-3 2.285-5.921 4.473-6.492 4.862-.707.484-.686 1.059.069 1.814.806.806 2.922-.271 7.834-3.989 27.408-20.745 65.064-22.676 95.304-4.888 7.609 4.476 24.005 20.874 28.352 28.355 3.237 5.571 4.898 6.969 5.64 4.744.581-1.742-9.762-16.291-16.055-22.584-11.014-11.014-23.496-18.306-38.871-22.709-8.259-2.365-29.855-3.48-38.166-1.97m8.34 9.303c-.275.278-2.75.801-5.5 1.161-7.116.933-20.566 5.746-27.08 9.69-27.83 16.853-42.499 48.261-37.073 79.378C55.879 180.979 87.788 208 125.5 208c43.658 0 79.454-37.028 77.221-79.878-.276-5.292-.762-10.697-1.08-12.01-5.966-24.609-19.017-42.182-39.69-53.443-5.935-3.232-16.1-6.787-23.451-8.2-4.602-.884-18.937-1.756-19.5-1.185m-2.321 3.754C92.247 59.94 70.013 75.645 59.048 97.744c-5.246 10.574-7.39 20.299-7.332 33.256.089 19.831 6.381 36.341 19.093 50.097 35.482 38.399 98.693 29.221 121.201-17.597 6.297-13.098 7.501-18.452 7.425-33-.074-14.071-1.705-21.251-7.493-33-13.587-27.58-44.374-44.13-75.263-40.462m-65.62 27.074c-4.868 7.651-9.712 19.753-11.754 29.371-2.202 10.372-1.308 32.66 1.686 42.017 4.912 15.352 13.383 28.894 24.826 39.688 9.502 8.964 27.191 19.226 28.761 16.685.789-1.276 1.083-1.058-6.578-4.872-20.776-10.345-35.935-27.91-43.15-50.001-2.587-7.921-3.186-11.59-3.603-22.073-.764-19.231 2.935-33.962 12.366-49.241 2.53-4.099 3.3-6.173 2.563-6.91-.736-.736-2.272.865-5.117 5.336m157.311 26.504c2.311 13.297 2.73 20.773 1.659 29.586-3.147 25.877-16.964 48.093-38.629 62.108-15.722 10.17-37.009 15.209-54.613 12.927-5.184-.672-6.826-.578-7.207.414-.733 1.912.38 2.257 9.55 2.962 31.045 2.384 61.89-12.893 79.655-39.452 10.31-15.415 14.839-30.712 14.552-49.161-.183-11.729-2.112-22.107-4.24-22.807-1.114-.367-1.264.336-.727 3.423" fill="#1976D2" fill-rule="evenodd"/><path fill-opacity=".319" d="M111.831 44.023c-7.48 1.262-15.806 3.918-23.331 7.441C80.93 55.009 67 64.444 67 66.026c0 1.567 2.635 1.121 4.128-.698 2.379-2.9 15.72-11.127 21.665-13.36 11.702-4.397 21.318-6.279 32.207-6.303 30.741-.07 59.435 16.225 74.094 42.077 1.323 2.334 2.969 4.246 3.656 4.25 1.867.012 1.649-.525-3.36-8.268-13.723-21.214-35.965-35.83-60.39-39.683-7.415-1.17-20.291-1.179-27.169-.018m-2.466 11.47c-29.178 6.346-52.485 29.65-58.896 58.89-2.341 10.675-1.622 29.132 1.523 39.117 8.039 25.519 27.462 44.215 53.717 51.707 6.142 1.752 10.331 2.217 19.791 2.195 18.534-.043 32.5-4.674 46.864-15.54 21.168-16.013 33.066-43.933 29.665-69.612-2.479-18.718-9.419-32.864-22.443-45.75-11.443-11.322-23.381-17.865-38.4-21.048-8.276-1.754-23.658-1.734-31.821.041M114 56.641C84.369 62.52 62.653 81.783 53.842 110c-3.382 10.829-3.388 31.128-.014 42 7.861 25.329 27.684 44.453 53.028 51.159 10.556 2.792 26.791 2.777 37.431-.037 20.947-5.539 38.745-20.178 48.172-39.622 5.729-11.819 7.541-19.663 7.541-32.654 0-12.966-2.345-22.859-7.989-33.707-9.778-18.796-23.828-30.694-44.511-37.695-6.496-2.199-10.162-2.764-19.5-3.004-6.325-.162-12.625-.072-14 .201M52.981 81.75C49.554 86.104 43.304 99.809 41.01 108c-1.172 4.185-2.354 12.141-2.672 18-1.926 35.392 16.58 67.279 48.379 83.362 5.178 2.619 8.286 3.328 8.279 1.888-.002-.412-2.056-1.594-4.564-2.626-7.306-3.004-18.873-11.043-25.337-17.608-16.333-16.589-24.45-36.311-24.494-59.516-.012-6.6.57-14.7 1.293-18 1.953-8.914 6.655-20.492 11.138-27.428C55.214 82.695 57 79.723 57 79.466c0-1.338-2.114-.137-4.019 2.284m155.479 28.5c1.789 8.192 2.036 11.032 1.974 22.75-.056 10.746-.457 13.76-2.853 21.483-3.367 10.85-6.899 18.032-12.797 26.017-17.752 24.037-43.224 36.373-72.921 35.314-11.16-.398-14.741.182-9.613 1.556 4.231 1.134 23.564.632 31.083-.807 12.933-2.474 24.475-7.863 36.667-17.12 13.381-10.16 23.464-24.967 29.581-43.443 2.602-7.859 2.818-9.706 2.861-24.5.03-10.276-.412-17.52-1.236-20.25-1.529-5.064-3.816-5.897-2.746-1" fill="#1976D2" fill-rule="evenodd"/><path fill-opacity=".146" d="M116 43.994c-14.305 1.775-28.098 6.913-39.622 14.76C70.805 62.549 65.928 67 67.342 67c.359 0 3.466-2.091 6.905-4.647 8.346-6.202 22.426-12.751 32.253-15 15.218-3.484 36.371-1.9 50.905 3.812 14.574 5.728 30.965 19.319 40.044 33.203 5.236 8.008 7.014 9.42 3.712 2.948-3.605-7.066-13.307-18.408-20.927-24.463C161.988 48.354 137.89 41.279 116 43.994m-3.64 11.415c-13.589 2.595-22.814 6.715-33.86 15.123-18.536 14.109-29.121 35.789-29.278 59.968-.226 34.707 23.031 65.438 56.076 74.095 16.353 4.284 29.257 3.874 45.038-1.429 12.155-4.084 18.796-8.326 29.287-18.706 8.053-7.968 9.738-10.28 14.207-19.5 6.603-13.62 8.642-23.436 7.875-37.914-.649-12.253-2.479-19.782-7.188-29.575-9.332-19.409-27.573-34.594-48.544-40.414-9.716-2.696-24.363-3.415-33.613-1.648m-2.86 2.033c-13.848 3.226-25.27 9.357-35.367 18.986-21.985 20.965-29.373 51.676-19.162 79.656 16.901 46.31 72.405 64.437 112.704 36.807 31.557-21.636 41.974-62.988 24.354-96.678-9.508-18.179-27.301-32.644-46.529-37.826-8.218-2.215-28.287-2.742-36-.945M52.739 82.818C43.55 96.703 38.93 112.477 38.918 130c-.009 12.824.933 18.964 4.607 30.044 6.703 20.211 23.127 38.78 43.196 48.838 6.818 3.416 7.279 3.555 7.279 2.185 0-.513-1.013-1.234-2.25-1.603-4.899-1.462-17.875-9.844-24.173-15.615-7.509-6.88-13.812-15.298-18.587-24.825-7.023-14.009-9.477-26.042-8.757-42.935.406-9.534 1.06-13.274 3.69-21.089 2.889-8.587 7.374-17.681 11.712-23.75.885-1.237 1.164-2.25.62-2.25-.544 0-2.126 1.718-3.516 3.818m156.181 24.59c-.319.322.061 3.625.846 7.339 1.954 9.253 1.102 30.351-1.586 39.253-8.971 29.709-31.909 52.052-61.734 60.135-6.365 1.725-10.831 2.162-22.446 2.199-12.052.037-13.572.196-9 .938 7.82 1.269 23.367.187 33.144-2.307 29.987-7.65 53.662-31.513 61.972-62.465 1.701-6.335 2.145-10.809 2.135-21.5-.012-12.431-1.806-25.131-3.331-23.592" fill="#1976D2" fill-rule="evenodd"/></svg>